# xmcd
#
# Track frame offsets: 
#        187
#        28200
#        43875
#        66945
#        90362
#        116817
#        132937
#        154137
#        180735
#        208215
#
# Disc length: 3083 seconds
#
# Revision: 7
# Processed by: cddbd v1.5.2PL0 Copyright (c) Steve Scherf et al.
# Submitted via: ExactAudioCopy v0.99pb5
#
DISCID=920c090a
DTITLE=Bill Evans - Explorations
DYEAR=1961
DGENRE=Jazz
TTITLE0=Israel
TTITLE1=Haunted Heart
TTITLE2=Beautiful Love (take 2)
TTITLE3=Elsa
TTITLE4=Nardis
TTITLE5=How Deep Is the Ocean?
TTITLE6=I Wish I Knew
TTITLE7=Sweet and Lovely
TTITLE8=Beautiful Love (take 1)
TTITLE9=The Boy Next Door
EXTD=YEAR: 1961
EXTT0=
EXTT1=
EXTT2=
EXTT3=
EXTT4=
EXTT5=
EXTT6=
EXTT7=
EXTT8=
EXTT9=
PLAYORDER=
